<?xml version="1.0" encoding="UTF-8"?>
<svg width="31px" height="34px" viewBox="0 0 31 34" version="1.1" xmlns="http://www.w3.org/2000/svg" xmlns:xlink="http://www.w3.org/1999/xlink">
    <title>logo_icon_color_2019</title>
    <g id="Page-1" stroke="none" stroke-width="1" fill="none" fill-rule="evenodd">
        <g id="Admin-1" transform="translate(-316.000000, -202.000000)" fill="#000000">
            <g id="logo_icon_color_2019" transform="translate(316.000000, 202.000000)">
                <path d="M17.5076439,0.000406721204 C16.7761775,0.000406721204 16.0176594,0.00558773526 15.6258721,0.000406721204 C13.4899952,-0.0278386145 13.9713039,1.42072308 14.2559144,2.58095299 C14.6555963,4.21038479 15.2794783,7.09669071 15.6258721,8.38716721 C15.7890399,8.99506276 16.0053242,10 16.9947572,10 C17.2412466,10 17.8594437,10 18.0207667,10 C18.9773344,10 19.2116816,9.05347265 19.3898448,8.38716721 C19.7325273,7.1056473 20.3671571,4.20193365 20.7589015,2.58095299 C21.0517927,1.36903366 21.4582964,0.000406721204 19.3898448,0.000406721204 C19.0440946,0.000406721204 17.9529338,0.000406721204 17.5076439,0.000406721204 Z" id="Path"></path>
                <path d="M4.96395008,4.94665431 C4.45624205,5.45532059 3.93356179,5.9866027 3.65780747,6.25522896 C2.15447788,7.71964608 3.55540249,8.45375336 4.60743839,9.11191196 C6.08492983,10.0362285 8.6436646,11.7320359 9.83451474,12.4433375 C10.3954784,12.7783977 11.2857258,13.3694894 11.9724899,12.6814366 C12.143586,12.5100457 12.5726636,12.0801551 12.6846499,11.9679831 C13.3485871,11.3027993 12.8141565,10.4414569 12.4470948,9.82591393 C11.7411258,8.64208499 10.0430941,6.05826872 9.12117548,4.5898221 C8.43192656,3.49196285 7.70612097,2.1994429 6.27038751,3.63780541 C6.03041071,3.87824627 5.2730392,4.63701577 4.96395008,4.94665431 Z" id="Path"></path>
                <path d="M29.0533582,4.96395008 C28.5447146,4.45624205 28.0132865,3.93356179 27.7447244,3.65780747 C26.2803963,2.15447788 25.5462281,3.55540249 24.8880083,4.60743839 C23.9637579,6.08492983 22.2679981,8.6436646 21.5566144,9.83451474 C21.2215973,10.3954784 20.6304653,11.2857258 21.3186426,11.9724899 C21.4899485,12.143586 21.9199011,12.5726636 22.032136,12.6846499 C22.6971068,13.3485871 23.5584886,12.8141565 24.1740929,12.4470948 C25.3578337,11.7411258 27.9417684,10.0430941 29.4101049,9.12117548 C30.5079818,8.43192656 31.800582,7.70612097 30.362203,6.27038751 C30.1216996,6.03041071 29.3630591,5.2730392 29.0533582,4.96395008 Z" id="Path"></path>
                <path d="M29.0359966,29.0533582 C29.5437007,28.5447146 30.0663557,28.0134975 30.3422132,27.7447244 C31.8455309,26.2803963 30.4445542,25.5462281 29.3925055,24.8882192 C27.9150889,23.9637579 25.3563533,22.2679981 24.1655336,21.5566144 C23.6045533,21.2215973 22.7144393,20.6304653 22.0275332,21.3186426 C21.8565438,21.4899485 21.4273854,21.9199011 21.3153578,22.032136 C20.6514048,22.6973177 21.1858522,23.5584886 21.55289,24.1740929 C22.2589587,25.3580447 23.9570612,27.9417684 24.8789725,29.4101049 C25.568195,30.5079818 26.2938474,31.800582 27.7295695,30.362203 C27.9696287,30.1216996 28.7270784,29.3630591 29.0359966,29.0533582 Z" id="Path"></path>
                <path d="M4.94666383,29.0361606 C5.45533016,29.543875 5.98661231,30.0665407 6.25523859,30.3421932 C7.71963474,31.8455416 8.45376317,30.4445363 9.11192182,29.3926768 C10.0362384,27.9150194 11.732046,25.3562316 12.4433265,24.1653876 C12.7784079,23.6043959 13.3694786,22.7142637 12.6814468,22.0273436 C12.5100559,21.8563507 12.0801652,21.4271835 11.9679721,21.3153642 C11.3028093,20.6513977 10.4414458,21.185856 9.82592385,21.5529013 C8.64207372,22.2587738 6.05827833,23.956911 4.58983159,24.8788411 C3.49197225,25.5680776 2.1994311,26.2939554 3.63781482,27.7297069 C3.8782346,27.9695603 4.63702526,28.7270255 4.94666383,29.0361606 Z" id="Path"></path>
                <path d="M17.4923473,33.9995916 C18.2238363,33.9995916 18.9823556,33.9945371 19.3741435,33.9995916 C21.5099595,34.0278967 21.0287144,32.5792812 20.7441034,31.4191757 C20.3443995,29.7896097 19.7205379,26.9032964 19.3741435,25.6129874 C19.2109754,25.0050339 18.9946908,24 18.0052348,24 C17.7587665,24 17.1405683,24 16.9792451,24 C16.0226759,24 15.7883283,24.946604 15.6101434,25.6129874 C15.2674818,26.8944005 14.632851,29.7981012 14.2411059,31.4191757 C13.9482143,32.6310391 13.5416884,33.9995916 15.6101434,33.9995916 C15.9558941,33.9995916 17.0470567,33.9995916 17.4923473,33.9995916 Z" id="Path"></path>
                <path d="M0.000406721204,17.4923529 C0.000406721204,18.223839 0.00558775548,18.9823551 0.000406721204,19.3741414 C-0.0278386145,21.5100128 1.42072308,21.0286839 2.58095299,20.7440955 C4.21038479,20.3443933 7.09669071,19.7205128 8.38716721,19.3741414 C8.99506276,19.2109525 10,18.9946688 10,18.0052384 C10,17.7587496 10,17.140554 10,16.9792315 C10,16.0226877 9.05347265,15.7883196 8.38716721,15.6101569 C7.1056473,15.2674967 4.20193365,14.6328686 2.58095299,14.2411037 C1.36903568,13.9482133 0.000406721204,13.5416891 0.000406721204,15.6101569 C0.000406721204,15.9559062 0.000406721204,17.0470642 0.000406721204,17.4923529 Z" id="Path"></path>
            </g>
        </g>
    </g>
</svg>
