<?xml version="1.0" encoding="UTF-8"?>
<svg width="90px" height="90px" viewBox="0 0 90 90" version="1.1" xmlns="http://www.w3.org/2000/svg" xmlns:xlink="http://www.w3.org/1999/xlink">
    <!-- Generator: Sketch 56.3 (81716) - https://sketch.com -->
    <title>Sendoso Round Logo</title>
    <desc>Created with Sketch.</desc>
    <defs>
        <linearGradient x1="0%" y1="0%" x2="100%" y2="100%" id="linearGradient-1">
            <stop stop-color="#FB8B24" offset="0%"></stop>
            <stop stop-color="#DA6D1F" offset="100%"></stop>
        </linearGradient>
        <circle id="path-2" cx="33" cy="33" r="33"></circle>
        <filter x="-30.3%" y="-24.2%" width="160.6%" height="160.6%" filterUnits="objectBoundingBox" id="filter-3">
            <feOffset dx="0" dy="4" in="SourceAlpha" result="shadowOffsetOuter1"></feOffset>
            <feGaussianBlur stdDeviation="6" in="shadowOffsetOuter1" result="shadowBlurOuter1"></feGaussianBlur>
            <feColorMatrix values="0 0 0 0 0.984313725   0 0 0 0 0.545098039   0 0 0 0 0.141176471  0 0 0 0.362771739 0" type="matrix" in="shadowBlurOuter1"></feColorMatrix>
        </filter>
    </defs>
    <g id="Amazon-Magic" stroke="none" stroke-width="1" fill="none" fill-rule="evenodd">
        <g id="CE01--Step-01a" transform="translate(-1191.000000, -24.000000)">
            <g id="Sendoso-Round-Logo" transform="translate(1203.000000, 32.000000)">
                <g id="Oval">
                    <use fill="black" fill-opacity="1" filter="url(#filter-3)" xlink:href="#path-2"></use>
                    <use fill="url(#linearGradient-1)" fill-rule="evenodd" xlink:href="#path-2"></use>
                </g>
                <g id="Group" transform="translate(18.000000, 16.000000)" fill="#FFFFFF">
                    <path d="M32,7.03998201 L24.3728889,0 L23.632,3.76087928 L13.4311111,3.72443493 C8.46577778,3.70665719 3.17822222,6.73153835 3.15866667,12.3719684 C3.14177778,17.1639561 7.11511111,19.2879507 10.016,20.8377245 C11.6337778,21.7021668 13.0311111,22.4488315 13.028,23.2897183 C13.0213333,25.2417133 10.316,25.2546021 10.2008889,25.2541577 L1.40088889,25.2230466 L0,31.9643628 L10.0657778,32 C15.8093333,32.0203626 20.3217778,28.2052612 20.3386667,23.315496 C20.3555556,18.4830639 16.3866667,16.419958 13.4884444,14.9137397 C11.8266667,14.0497419 10.3915556,13.3035216 10.3946667,12.3973016 C10.4,10.9328609 12.352,10.465751 13.2964444,10.4693066 L22.304,10.5013065 L21.5848889,14.1519638 L32,7.03998201 Z" id="Fill-14"></path>
                </g>
            </g>
        </g>
    </g>
</svg>